<?xml version="1.0" encoding="UTF-8" standalone="no"?>
<!DOCTYPE svg PUBLIC "-//W3C//DTD SVG 1.1//EN" "http://www.w3.org/Graphics/SVG/1.1/DTD/svg11.dtd">
<svg width="100%" height="100%" viewBox="0 0 1138 292" version="1.1" xmlns="http://www.w3.org/2000/svg" xmlns:xlink="http://www.w3.org/1999/xlink" xml:space="preserve" xmlns:serif="http://www.serif.com/" style="fill-rule:evenodd;clip-rule:evenodd;stroke-linejoin:round;stroke-miterlimit:2;">
    <g>
        <path d="M-0.949,145.627C-0.949,212.668 41.51,292 143.561,292C233.321,292 292.168,223.097 292.168,139.668C292.168,52.888 229.597,0 145.796,0C43,0 -0.949,85.291 -0.949,145.627ZM844.882,145.627C844.882,212.668 887.338,292 989.394,292C1079.15,292 1138,223.097 1138,139.668C1138,52.888 1075.42,0 991.623,0C888.828,0 844.882,85.291 844.882,145.627ZM578.209,5.214L578.209,5.214L569.515,5.214L569.515,5.214C560.111,5.224 535.741,6.332 533.888,6.332C524.949,6.332 513.403,5.214 505.954,5.214C503.347,5.214 501.485,5.959 501.485,7.821C501.485,9.311 502.975,10.056 504.837,10.801C507.816,11.919 509.678,14.153 509.678,18.622C509.678,24.954 499.994,34.638 489.566,45.439C476.158,59.965 408.745,128.495 402.413,135.572L400.924,135.572L400.924,113.224C400.924,55.122 400.924,44.694 401.668,32.776C402.413,19.74 405.393,13.408 415.449,11.546C419.919,10.801 422.153,10.429 424.76,10.429C426.25,10.429 427.74,9.684 427.74,8.194C427.74,5.959 425.878,5.214 421.781,5.214C410.608,5.214 389.005,6.332 385.653,6.332C383.418,6.332 361.444,5.214 344.683,5.214C340.587,5.214 338.724,5.959 338.724,8.194C338.724,9.684 340.215,10.429 341.704,10.429C345.056,10.429 351.388,10.801 354.367,11.546C366.658,14.153 369.638,20.113 370.383,32.776C371.127,44.694 371.127,55.122 371.127,113.224L371.127,178.776C371.127,214.531 371.127,243.954 369.265,259.597C367.775,270.398 365.913,278.592 358.464,280.081C355.112,280.827 350.643,281.572 347.291,281.572C345.056,281.572 344.312,282.689 344.312,283.806C344.312,286.041 346.174,286.786 350.27,286.786C361.444,286.786 383.046,285.668 386.026,285.668C389.005,285.668 410.608,286.786 428.857,286.786C432.954,286.786 434.817,285.668 434.817,283.806C434.817,282.689 434.071,281.572 431.836,281.572C428.485,281.572 422.525,280.827 417.311,280.081C406.138,278.592 403.903,270.398 402.786,259.597C400.924,243.954 400.924,214.531 400.924,178.776L400.924,142.275L402.786,142.275C420.663,164.25 499.623,249.541 516.383,263.321C532.398,275.985 541.709,284.178 561.449,286.041C569.643,286.786 576.719,286.786 587.148,286.786L606.142,286.786C612.474,286.786 614.337,285.668 614.337,283.806C614.337,282.316 612.102,281.572 609.495,281.572C606.888,281.572 596.087,280.827 586.403,276.73C568.525,269.281 562.194,263.321 530.908,234.271C515.638,220.117 438.168,140.041 428.485,129.24C436.306,119.929 501.112,56.612 510.424,47.674C527.184,31.658 535.378,22.347 550.648,15.643C558.097,12.291 565.919,10.429 571.505,10.429L571.505,10.429L571.505,10.429L571.518,10.429C571.545,10.428 571.571,10.428 571.597,10.426C574.155,10.347 575.264,10.341 577.07,10.428L577.078,10.429C580.418,10.712 587.52,12.663 593.107,16.388C599.811,20.857 609.123,30.168 618.434,43.949C631.469,63.317 681.378,145.255 683.984,151.214C688.827,162.016 692.551,170.209 692.551,190.322L692.551,222.352C692.551,228.312 692.551,243.954 691.433,259.597C690.689,270.398 687.337,278.592 679.888,280.081C676.535,280.827 672.067,281.572 668.714,281.572C666.48,281.572 665.735,282.689 665.735,283.806C665.735,286.041 667.597,286.786 671.694,286.786C682.867,286.786 706.332,285.668 708.194,285.668C710.057,285.668 733.52,286.786 754.005,286.786C758.102,286.786 759.964,285.668 759.964,283.806C759.964,282.689 759.22,281.572 756.985,281.572C753.633,281.572 745.439,280.827 740.225,280.081C729.051,278.592 725.699,270.398 724.954,259.597C723.836,243.954 723.836,228.312 723.836,222.352L723.836,190.322C723.836,178.03 723.836,166.484 729.423,153.076C736.128,137.061 788.27,49.536 800.561,34.638C808.755,24.581 812.852,20.113 820.301,15.643C826.26,11.919 833.337,10.429 837.433,10.429C840.414,10.429 842.276,9.311 842.276,7.449C842.276,5.959 840.041,5.214 837.433,5.214C830.357,5.214 803.541,6.332 801.306,6.332C798.327,6.332 786.408,5.214 776.724,5.214C773,5.214 770.766,5.959 770.766,7.449C770.766,9.311 773,10.056 776.352,11.173C780.821,12.291 782.311,16.388 782.311,21.602C782.311,26.444 780.821,32.776 775.98,40.597C768.531,52.888 721.23,134.454 714.153,150.097C707.449,139.296 651.581,43.204 645.623,32.403C642.643,26.816 640.781,22.347 640.781,17.878C640.781,14.898 642.643,12.663 645.623,11.173C648.975,9.684 651.21,9.311 651.21,7.821C651.21,6.332 650.464,5.214 646.367,5.214C631.842,5.214 617.688,6.332 615.082,6.332C613.22,6.332 585.285,5.214 578.209,5.214L578.209,5.214ZM34.434,135.199C34.434,53.633 80.99,12.663 143.189,12.663C202.036,12.663 256.413,60.709 256.413,150.097C256.413,258.48 187.138,277.847 153.617,277.847C86.577,277.847 34.434,221.98 34.434,135.199ZM880.267,135.199C880.267,53.633 926.818,12.663 989.019,12.663C1047.87,12.663 1102.25,60.709 1102.25,150.097C1102.25,258.48 1032.97,277.847 999.453,277.847C932.409,277.847 880.267,221.98 880.267,135.199Z" style="fill-rule:nonzero;"/>
    </g>
</svg>
