<?xml version="1.0" encoding="UTF-8"?>
<svg width="75px" height="19px" viewBox="0 0 75 19" version="1.1" xmlns="http://www.w3.org/2000/svg" xmlns:xlink="http://www.w3.org/1999/xlink">
    <title>Line 3</title>
    <g id="Website" stroke="none" stroke-width="1" fill="none" fill-rule="evenodd">
        <g id="Bar" transform="translate(-593.000000, -1944.000000)" fill="#F3F1EC" fill-rule="nonzero">
            <g id="Group-6-Copy" transform="translate(10.000000, 1938.000000)">
                <path id="Line-3" d="M639.688926,6 C639.864877,6 640.038411,6.04096579 640.195785,6.11965314 L656.928795,14.4861582 C657.488656,14.7660886 657.715585,15.4468739 657.435654,16.0067347 C657.325985,16.226073 657.148134,16.4039244 656.928795,16.5135936 L640.195785,24.8800986 C639.635924,25.160029 638.955139,24.9331006 638.675209,24.3732397 C638.596521,24.215865 638.555556,24.0423312 638.555556,23.8663809 L638.555,17 L584.5,17 C583.671573,17 583,16.3284271 583,15.5 C583,14.6715729 583.671573,14 584.5,14 L638.555,14 L638.555556,7.13337084 C638.555556,6.54915697 638.997581,6.06818373 639.565433,6.00665047 Z"></path>
            </g>
        </g>
    </g>
</svg>