<?xml version="1.0" encoding="UTF-8"?>
<svg width="259px" height="66px" viewBox="0 0 259 66" version="1.1" xmlns="http://www.w3.org/2000/svg" xmlns:xlink="http://www.w3.org/1999/xlink">
    <title>Okyo_logo Copy</title>
    <g id="Website" stroke="none" stroke-width="1" fill="none" fill-rule="evenodd">
        <g id="iPhone-11-Pro-Copy" transform="translate(-59.000000, -314.000000)" fill="#4F3900">
            <g id="Okyo_logo-Copy" transform="translate(59.000000, 314.000000)">
                <path d="M0,32.9156918 C0,48.0687945 9.65528834,66 32.8619543,66 C53.2736145,66 66.6555772,50.4260342 66.6555772,31.5687945 C66.6555772,11.954137 52.4267671,0 33.3701992,0 C9.99411826,0 0,19.2781027 0,32.9156918 Z M192.344195,32.9156918 C192.344195,48.0687945 201.998802,66 225.206605,66 C245.617355,66 259,50.4260342 259,31.5687945 C259,11.954137 244.769143,0 225.713485,0 C202.337631,0 192.344195,19.2781027 192.344195,32.9156918 Z M131.702053,1.17850685 L131.702053,1.17850685 L129.725015,1.17850685 L129.725015,1.17850685 C127.586521,1.18076712 122.044718,1.43120548 121.623341,1.43120548 C119.590589,1.43120548 116.964998,1.17850685 115.271076,1.17850685 C114.678238,1.17850685 114.254814,1.34689726 114.254814,1.76776027 C114.254814,2.1045411 114.593644,2.27293151 115.017067,2.44132192 C115.6945,2.69402055 116.117924,3.19896575 116.117924,4.20908219 C116.117924,5.64028767 113.915757,7.82913699 111.544402,10.2704589 C108.495387,13.5537329 93.1654938,29.0433904 91.7255803,30.6429863 L91.3869778,30.6429863 L91.3869778,25.591726 C91.3869778,12.4590822 91.3869778,10.1020685 91.5561654,7.40827397 C91.7255803,4.46178082 92.4032402,3.03057534 94.690001,2.60971233 C95.7064908,2.44132192 96.2145083,2.35723973 96.8073469,2.35723973 C97.1461769,2.35723973 97.4850068,2.18884932 97.4850068,1.85206849 C97.4850068,1.34689726 97.0615831,1.17850685 96.1299145,1.17850685 C93.5891449,1.17850685 88.6765659,1.43120548 87.9143122,1.43120548 C87.4060673,1.43120548 82.4091219,1.17850685 78.5976264,1.17850685 C77.6661852,1.17850685 77.2425341,1.34689726 77.2425341,1.85206849 C77.2425341,2.18884932 77.5815914,2.35723973 77.920194,2.35723973 C78.6824476,2.35723973 80.1223611,2.44132192 80.7997935,2.60971233 C83.5947992,3.19896575 84.2724591,4.54608904 84.441874,7.40827397 C84.6110616,10.1020685 84.6110616,12.4590822 84.6110616,25.591726 L84.6110616,40.408274 C84.6110616,48.4898836 84.6110616,55.1402877 84.1876379,58.6760342 C83.848808,61.1173562 83.4253843,62.9694247 81.7314621,63.3059795 C80.9692085,63.4745959 79.9529461,63.6429863 79.1906925,63.6429863 C78.6824476,63.6429863 78.51326,63.8954589 78.51326,64.1479315 C78.51326,64.6531027 78.9366837,64.8214932 79.8681249,64.8214932 C82.4091219,64.8214932 87.3214736,64.5687945 87.9991334,64.5687945 C88.6765659,64.5687945 93.5891449,64.8214932 97.7390155,64.8214932 C98.6706841,64.8214932 99.0943352,64.5687945 99.0943352,64.1479315 C99.0943352,63.8954589 98.9246929,63.6429863 98.416448,63.6429863 C97.6544218,63.6429863 96.2991021,63.4745959 95.1134247,63.3059795 C92.5726551,62.9694247 92.0644103,61.1173562 91.8104015,58.6760342 C91.3869778,55.1402877 91.3869778,48.4898836 91.3869778,40.408274 L91.3869778,32.1580479 L91.8104015,32.1580479 C95.8756784,37.125 113.83139,56.4031027 117.642658,59.5177603 C121.284511,62.3801712 123.401857,64.2320137 127.890785,64.6531027 C129.754122,64.8214932 131.363223,64.8214932 133.734806,64.8214932 L138.054091,64.8214932 C139.494005,64.8214932 139.917656,64.5687945 139.917656,64.1479315 C139.917656,63.8111507 139.409411,63.6429863 138.816572,63.6429863 C138.223733,63.6429863 135.767558,63.4745959 133.565391,62.5485616 C129.499886,60.8648836 128.0602,59.5177603 120.945682,52.9516644 C117.473243,49.7524726 99.8563614,31.6531027 97.6544218,29.2117808 C99.4329377,27.1072397 114.169993,12.795863 116.287566,10.7756301 C120.098834,7.15557534 121.962171,5.05103425 125.434609,3.53574658 C127.128532,2.77810274 128.907275,2.35723973 130.177546,2.35723973 L130.177546,2.35723973 L130.177546,2.35723973 L130.180502,2.35723973 C130.186642,2.3570137 130.192555,2.3570137 130.198467,2.35656164 C130.780163,2.33870548 131.032353,2.33734932 131.443042,2.3570137 L131.444861,2.35723973 C132.204386,2.42120548 133.819399,2.86218493 135.089898,3.70413699 C136.614405,4.71425342 138.731978,6.81879452 140.849324,9.93367808 C143.813518,14.3113767 155.162955,32.8316096 155.755567,34.1785068 C156.856878,36.6200548 157.703725,38.4718973 157.703725,43.0179863 L157.703725,50.2576438 C157.703725,51.6047671 157.703725,55.1402877 157.449489,58.6760342 C157.280301,61.1173562 156.518048,62.9694247 154.824126,63.3059795 C154.061645,63.4745959 153.04561,63.6429863 152.283129,63.6429863 C151.775111,63.6429863 151.605696,63.8954589 151.605696,64.1479315 C151.605696,64.6531027 152.02912,64.8214932 152.960788,64.8214932 C155.501558,64.8214932 160.837561,64.5687945 161.260984,64.5687945 C161.684636,64.5687945 167.020184,64.8214932 171.678526,64.8214932 C172.610195,64.8214932 173.033619,64.5687945 173.033619,64.1479315 C173.033619,63.8954589 172.864431,63.6429863 172.356186,63.6429863 C171.593933,63.6429863 169.730595,63.4745959 168.544918,63.3059795 C166.003921,62.9694247 165.241668,61.1173562 165.072253,58.6760342 C164.818016,55.1402877 164.818016,51.6047671 164.818016,50.2576438 L164.818016,43.0179863 C164.818016,40.2396575 164.818016,37.6299452 166.088515,34.5993699 C167.61325,30.9795411 179.470478,11.1964932 182.265483,7.82913699 C184.128821,5.55597945 185.060489,4.54608904 186.754411,3.53574658 C188.109504,2.69402055 189.718832,2.35723973 190.650273,2.35723973 C191.32816,2.35723973 191.751584,2.1045411 191.751584,1.68367808 C191.751584,1.34689726 191.243339,1.17850685 190.650273,1.17850685 C189.041172,1.17850685 182.943143,1.43120548 182.434898,1.43120548 C181.757466,1.43120548 179.047054,1.17850685 176.844887,1.17850685 C175.998039,1.17850685 175.490022,1.34689726 175.490022,1.68367808 C175.490022,2.1045411 175.998039,2.27293151 176.760293,2.52540411 C177.776555,2.77810274 178.115385,3.70413699 178.115385,4.88264384 C178.115385,5.97706849 177.776555,7.40827397 176.675699,9.17603425 C174.981777,11.954137 164.225405,30.3902877 162.616077,33.9260342 C161.09157,31.4847123 148.387039,9.76528767 147.032174,7.32396575 C146.354515,6.06115068 145.931091,5.05103425 145.931091,4.04091781 C145.931091,3.36735616 146.354515,2.86218493 147.032174,2.52540411 C147.794428,2.18884932 148.302673,2.1045411 148.302673,1.76776027 C148.302673,1.43120548 148.133031,1.17850685 147.201362,1.17850685 C143.898339,1.17850685 140.679682,1.43120548 140.087071,1.43120548 C139.663647,1.43120548 133.311154,1.17850685 131.702053,1.17850685 L131.702053,1.17850685 Z M8.04618732,30.5586781 C8.04618732,12.1225274 18.6331442,2.86218493 32.7773605,2.86218493 C46.1593232,2.86218493 58.5247961,13.7218973 58.5247961,33.9260342 C58.5247961,58.4235616 42.7714788,62.8010342 35.1487152,62.8010342 C19.9036427,62.8010342 8.04618732,50.1735616 8.04618732,30.5586781 Z M200.390838,30.5586781 C200.390838,12.1225274 210.976657,2.86218493 225.121329,2.86218493 C238.504201,2.86218493 250.870356,13.7218973 250.870356,33.9260342 C250.870356,58.4235616 235.115902,62.8010342 227.494048,62.8010342 C212.248066,62.8010342 200.390838,50.1735616 200.390838,30.5586781 Z" id="Shape"></path>
            </g>
        </g>
    </g>
</svg>